<?xml version="1.0" encoding="utf-8"?>
<!-- Generator: Adobe Illustrator 19.2.1, SVG Export Plug-In . SVG Version: 6.00 Build 0)  -->
<svg version="1.1" id="Layer_1" xmlns="http://www.w3.org/2000/svg" xmlns:xlink="http://www.w3.org/1999/xlink" x="0px" y="0px"
	 viewBox="0 0 41.3 40.8" style="enable-background:new 0 0 41.3 40.8;" xml:space="preserve">
<style type="text/css">
	.st0{fill:#FCFCFC;}
</style>
<g>
	<g>
		<path class="st0" d="M0.8,36.3c-0.2,0.2-0.3,0.5-0.2,0.8c0,0.3,0.2,0.6,0.4,0.9l1.4,1.5C2.8,39.8,3.2,40,3.5,40
			c0.2,0,0.4-0.1,0.6-0.2L5,38.9l-3.4-3.4L0.8,36.3z"/>
		<path class="st0" d="M40,3.7C40.7,3,40.7,2,40,1.3c-0.7-0.7-1.7-0.7-2.4,0l-27,26.5c-0.1,0.1-0.1,0.2-0.2,0.2l-0.8-0.8l-2.1,2.1
			l0.8,0.8L7,31.5c-0.4-0.2-0.9-0.2-1.2,0.1l-3.6,3.5l3.4,3.4L9.1,35c0.2-0.2,0.3-0.5,0.2-0.8c0-0.1-0.1-0.3-0.2-0.4l1.5-1.5
			l0.8,0.8l2.1-2.1l-0.7-0.7c0.1-0.1,0.2-0.1,0.2-0.2L40,3.7z M9,33.3l-1.6-1.6l1.3-1.3l1.6,1.6L9,33.3z M11.3,28.9
			c0-0.1,0.1-0.2,0.2-0.3l27-26.5c0.2-0.2,0.6-0.2,0.8,0c0.2,0.2,0.2,0.6,0,0.8l-27,26.5c-0.1,0.1-0.2,0.1-0.3,0.1L11.3,28.9z"/>
	</g>
</g>
</svg>
