<?xml version="1.0" encoding="utf-8"?>
<!-- Generator: Adobe Illustrator 19.2.1, SVG Export Plug-In . SVG Version: 6.00 Build 0)  -->
<svg version="1.1" id="Layer_1" xmlns="http://www.w3.org/2000/svg" xmlns:xlink="http://www.w3.org/1999/xlink" x="0px" y="0px"
	 viewBox="0 0 37.4 47.4" style="enable-background:new 0 0 37.4 47.4;" xml:space="preserve">
<style type="text/css">
	.st0{fill:#FFFFFF;}
</style>
<g>
	<path class="st0" d="M15.6,17c0-0.4-0.1-0.9-0.4-1.2c-0.2-0.3-0.6-0.6-0.9-0.7c-0.2-0.1-0.4-0.1-0.6-0.1c-0.4,0-0.6,0.1-0.9,0.2
		s-0.6,0.4-0.7,0.7c-0.1,0.2-0.2,0.6-0.2,0.9c0,0.3,0.1,0.6,0.2,0.8c0.2,0.3,0.3,0.5,0.6,0.7c0.3,0.2,0.7,0.3,1.1,0.3
		c0.4,0,0.7,0,1-0.2c0.3-0.2,0.4-0.3,0.6-0.6C15.5,17.6,15.6,17.3,15.6,17z"/>
	<path class="st0" d="M18.2,21.9c-0.6,0-1.9,0-2.5-0.1c-0.6-0.1-0.4,0.4-0.4,0.4s0.6,0.7,2.2,0.7c2.2,0,3.5-0.6,3.3-1.1
		C20.6,21.5,19.6,21.8,18.2,21.9z"/>
	<path class="st0" d="M15.6,20.4c0,0.2,0.1,0.3,0.4,0.4c0.1,0,0.3,0,0.4-0.1c0.2-0.2,0.4-0.6,0.7-0.6c0.3,0,0.4,0.3,0.5,0.7
		c0,0.2,0.9,0.2,0.9,0c0.4-0.7,0.6-0.7,1.1-0.1c0.1,0.1,0.5,0.1,0.5,0c0.2-0.1,0.3-0.4,0.3-0.6c0-0.5-0.2-1-0.6-1.4
		c-0.5-0.4-1.1-0.6-1.9-0.5c-0.6,0-1.4,0.2-1.9,0.7C15.5,19.7,15.6,20.4,15.6,20.4z"/>
	<path class="st0" d="M23.2,15.2c-0.2-0.1-0.6-0.2-0.9-0.2c-0.3,0-0.6,0.1-0.8,0.2c-0.3,0.2-0.5,0.3-0.7,0.6
		c-0.2,0.3-0.3,0.7-0.3,1.1c0,0.4,0,0.7,0.2,1c0.2,0.3,0.3,0.4,0.6,0.6c0.3,0.1,0.6,0.3,0.9,0.3c0.4,0,0.9-0.1,1.2-0.4
		c0.3-0.2,0.6-0.6,0.7-0.9c0.1-0.2,0.1-0.4,0.1-0.6c0-0.4-0.1-0.6-0.2-0.9C23.7,15.7,23.5,15.4,23.2,15.2z"/>
	<path class="st0" d="M34.6,23.7c-0.1-0.1-0.2-0.1-0.3-0.1C34.9,17,35.4,11.1,35.7,9c0-0.4,0.2-1,0.2-1.2c0-0.7,0.7-0.8,0.7-1.4
		c0-1.5-0.9-5.7-1.6-5.8c-0.7,0.2-2.6,3.9-2.6,5.5c0,1,0.6,0.5,0.5,1.5c-0.4,2-0.7,8-0.9,10.7c-0.1,1.3-0.2,2.8-0.3,4.3
		c-1.9-1.9-1.7-6.7-1.2-8c0.7-2,0.8-3.4-0.3-5.1c-1.4-2.1-3.3-2.3-6.3-1.1c-3.3-0.7-7.8-0.6-12.2,0.2c-1.7-0.5-3.2-1.3-4.8-0.1
		c-2.2,1.7-2.5,3-2,4.4c0.2,0.6,0.5,1.3,0.7,2.1c0.1,2.6,0,5.1-0.3,6c-0.4,1.1-0.8,2.7-1.2,3.3c-3.2,4.8-4.5,12.8-1.5,14.9
		c0.4,0.3,1.5,0.4,1.8,0.2C5,39.3,5.2,38,5.8,37.7c0.1-0.1,0.4,0,0.4,0.7c-0.2,2.3-0.7,6,0.5,7.8c0.3,0.7,9.4,1,9.6-0.1
		c0.1-0.7,0.1-1.1,0.6-1.7c0.9-0.2,2.2-0.3,2.8-0.1c0.9,0.6,0.2,0.9,0.8,1.8C21,46.6,28,47,28.3,46c0.8-2.7,1-5.5,0.9-6.5
		c-0.3-2.7-0.2-4.8,0.5-5.4c0.3-0.2,0.7-0.1,1.2,0.2c-0.4,6.5-0.7,11.8-0.7,12c0,0.7,0.4,1.1,0.5,1.1c0.1,0,0.7,0,0.9,0
		c0.2,0,0.6-0.6,0.6-1.1c0.1-0.2,0.5-5.2,1.1-11.6C36,33.5,37.2,25.5,34.6,23.7z M28.8,18.7c0.1,2.9,0.7,4.1,0.4,5.9
		c-0.2,1-2.4,2.9-4.5,3.8c-1.9,0.8-3.1,2.2-4.6,2.8c-1.5,0.6-3.8,0.7-6.2,2.1c-2.6,1.6-5.3,2.7-6.7-0.5c-0.5-1.1-0.7-2.7-0.8-3.8
		c0-1.3-0.1-2.9,0.1-4.4c0.1-0.6,0.4-2,0.6-3.1c0,0,0.2-5.6,0.2-6.4c0-0.7-0.3-0.9-0.3-1.8c0-0.9,1.3-1.6,2.5-2.6
		c0.9-0.7,1.8-0.3,2.7-0.7c0.8-0.4,3.8-0.7,5.7-0.7c2.8,0,5.4,0.3,6.8,0.4c1.9,0.1,4.2,0.8,4.6,2.5c0.1,0.5-0.2,1.5-0.2,2.8
		C29,16.3,28.8,17.7,28.8,18.7z M33.8,6.9c0.5,0,0.8,0.1,1.2,0.1c0,0.2-0.1,0.5-0.1,0.8c-0.5-0.1-0.7-0.1-1.2-0.1
		C33.7,7.7,33.7,7.2,33.8,6.9z M33.9,18.9c-0.3,3.5-2,19.5-2.4,26.5c-0.1,1.1-0.5,1-0.5,0.3c0-0.3,1.7-24.5,1.7-25.1
		c0.4-6.8,0.7-11.7,0.9-12.3c0.5,0,0.8-0.1,1.2,0.1C34.8,8.4,34.2,13.9,33.9,18.9z"/>
	<path class="st0" d="M25.6,13.2c-1.4-0.8-4.5-0.9-7.3-0.9c-1.9,0-7.5-0.3-8.8,2.2c-2.3,3.5-1,7-1,7c0.7,2.3,1.9,3,4.1,3.5
		c0.8,0.2,2.9,1.1,5.9,0.9c2.6-0.1,3.4-0.1,6.1-1.4c2.4-1.1,3.3-2.6,3.3-5.6C27.8,16.7,27,13.9,25.6,13.2z M24.1,22.9
		c-2.3,1.2-4.1,1.4-6,1.3c-3.1-0.1-4.8-0.3-6.3-1.1c-1.3-1-2-1.9-2.2-3.5c0,0-0.6-2.5,0.5-4.3c1.6-2,4.2-1.7,6.7-1.8
		c2.8-0.1,6.4,0.1,7.7,0.7c1.3,0.7,2.1,1.9,2,3.8C26.3,20.7,26,21.9,24.1,22.9z"/>
	<path class="st0" d="M18.6,11.2c1.4,0,4.8,0.4,5.9,0.5c0.3,0,0.5,0.3,0.6,0.2c0.2-0.2,0.2-0.6,0.1-0.9c0,0-0.4,0-0.7,0
		c-0.7,0.2-2.8-0.6-5.9-0.5c-5.2,0.1-6.9,0.5-6.7,1C12.1,11.8,15.2,11.3,18.6,11.2z"/>
</g>
</svg>
