<?xml version="1.0" encoding="utf-8"?>
<!-- Generator: Adobe Illustrator 19.2.1, SVG Export Plug-In . SVG Version: 6.00 Build 0)  -->
<svg version="1.1" id="Layer_1" xmlns="http://www.w3.org/2000/svg" xmlns:xlink="http://www.w3.org/1999/xlink" x="0px" y="0px"
	 viewBox="0 0 51.1 20.6" style="enable-background:new 0 0 51.1 20.6;" xml:space="preserve">
<style type="text/css">
	.st0{fill:#FFFFFF;}
</style>
<g>
	<g>
		<path class="st0" d="M4.4,1.6c-1,0-1.9,0.5-2.6,1.5c-0.6,0.9-1,2-1,3.2l-0.1,7.2c0,1.6,0.5,3,1.4,3.9c0.6,0.6,1.3,0.9,2,0.9
			l4.5,0.1L8.5,1.7L4.4,1.6z"/>
		<path class="st0" d="M50,4.4c-0.4,0-0.8,0-1.1,0.1l0-4L38.7,0.6l0,3.9l-7.1,0.1c-0.6-1.5-1.8-2.7-3.1-2.7L10.8,1.7L11,18.4
			l17.3,0.2c1,0,1.9-0.5,2.6-1.5c0.3-0.4,0.5-0.9,0.7-1.5l7.2-0.1l0,4.1l10.2-0.1l0-3.5c0.3,0.1,0.7,0.1,1,0.1 M32.4,14l-0.1-7.7
			l6.4-0.1l0.1,7.7L32.4,14z M50.1,12.4c-0.4,0-0.7-0.1-1-0.3l0-3.6c0.3-0.2,0.7-0.3,1.1-0.3"/>
	</g>
</g>
</svg>
