<?xml version="1.0" encoding="utf-8"?>
<!-- Generator: Adobe Illustrator 19.2.1, SVG Export Plug-In . SVG Version: 6.00 Build 0)  -->
<svg version="1.1" id="Layer_1" xmlns="http://www.w3.org/2000/svg" xmlns:xlink="http://www.w3.org/1999/xlink" x="0px" y="0px"
	 viewBox="0 0 56.8 39.9" style="enable-background:new 0 0 56.8 39.9;" xml:space="preserve">
<style type="text/css">
	.st0{fill:#FFFFFF;}
</style>
<g>
	<g transform="translate(0,-952.36218)">
		<path class="st0" d="M10.7,953.1c-2.4,0-4.4,2-4.4,4.4c0,2.4,2,4.4,4.4,4.4s4.4-2,4.4-4.4C15.1,955,13.2,953.1,10.7,953.1z
			 M51.7,954.7c-1,0-2.1,0.2-3.3,0.5c-5.4,1.7-9.3,3.2-13.8,5.4c-1.8-0.8-3.7-1.3-5.8-1.3c-7.6,0-13.8,6.2-13.8,13.8
			c0,3.1,1,5.9,2.7,8.2c3.8-1.8,7.9-4,12.2-6.6c4.2-2.6,8-5.2,11.3-7.7c-0.8-1.7-2-3.2-3.4-4.4c4.6-2.2,8.7-3.8,11.8-4.5
			c1.6-0.4,2.9-0.5,3.8-0.5c0.3,0,0.5,0.1,0.6,0.2c-0.1,0.4-0.4,1-0.8,1.6c-0.9,1.4-2.5,3.2-4.5,5.1c-4.1,3.9-10.3,8.5-17.5,12.9
			c-7.2,4.4-14.1,7.7-19.3,9.5c-2.6,0.9-4.8,1.4-6.4,1.5c-0.8,0.1-1.4,0-1.7-0.1c0-0.2,0.1-0.4,0.2-0.6c0.4-0.8,1.1-1.9,2.1-3.1
			c1.7-2,4.2-4.3,7.2-6.7c-0.4-1.1-0.6-2.3-0.7-3.5c-3.6,2.8-6.4,5.4-8.4,7.7c-1.1,1.3-1.9,2.4-2.4,3.5c-0.2,0.5-0.4,1.1-0.5,1.7
			c-0.1,0.6,0,1.4,0.5,2.2c0.6,1.1,1.5,1.6,2.2,1.8s1.5,0.3,2.4,0.2c1.8-0.1,4.1-0.7,6.8-1.6c2.9-1,6.2-2.5,9.8-4.3
			c1.8,0.8,3.7,1.3,5.8,1.3c2.3,0,4.4-0.5,6.3-1.5c0.4-3.5,3-6.4,6.5-7.1c0.6-1.4,0.9-3,1-4.6c3-2.2,5.7-4.4,7.8-6.4
			c2.1-2,3.7-3.8,4.7-5.4c0.5-0.8,0.9-1.5,1-2.3c0.2-0.8,0.3-1.8-0.4-2.9c-0.5-0.8-1.1-1.3-1.6-1.5c-0.5-0.3-1.1-0.4-1.6-0.4
			C52.4,954.7,52.1,954.7,51.7,954.7z M43.4,980.7c-3.1,0-5.6,2.5-5.6,5.6c0,3.1,2.5,5.6,5.6,5.6c3.1,0,5.6-2.5,5.6-5.6
			C49,983.2,46.5,980.7,43.4,980.7z"/>
	</g>
</g>
</svg>
