<?xml version="1.0" encoding="utf-8"?>
<!-- Generator: Adobe Illustrator 19.2.1, SVG Export Plug-In . SVG Version: 6.00 Build 0)  -->
<svg version="1.1" id="Layer_1" xmlns="http://www.w3.org/2000/svg" xmlns:xlink="http://www.w3.org/1999/xlink" x="0px" y="0px"
	 viewBox="0 0 56.8 49.4" style="enable-background:new 0 0 56.8 49.4;" xml:space="preserve">
<style type="text/css">
	.st0{fill:#FFFFFF;}
</style>
<g>
	<g>
		<path class="st0" d="M21.2,21.9c-2.4,1.7-2.9,5.1-1.1,7.5c1.7,2.4,5.1,2.9,7.5,1.1s2.9-5.1,1.1-7.5C26.9,20.7,23.5,20.2,21.2,21.9
			z M27.3,24c0.7,0.9,0.5,2.2-0.4,2.9c-0.9,0.7-2.2,0.5-2.9-0.4c-0.7-0.9-0.5-2.2,0.4-2.9C25.3,22.9,26.6,23.1,27.3,24z"/>
		<path class="st0" d="M38.1,39.1c0,0,0.1,0.1,0.1,0.1l0.2,0.5l2,1.4c1.2-1.4,2.2-2.9,3-4.4L30.9,31L38.1,39.1z"/>
		<path class="st0" d="M47.3,13.7l-4.1,3c0-0.1-0.1-0.2-0.1-0.3l-12.2,9c-0.2,0.1-0.4,0.1-0.5,0c0.2,1.4-0.1,2.9-0.9,4.1l0.8,0.9
			l1.4-3.7c0.1-0.2,0.3-0.3,0.5-0.2l13.1,3.9l0.2-0.1c0.1-0.4,0.1-0.9,0.2-1.3L56,8.9l-1.1-1.5l-1.6,1.1l-0.7,0l-5.2,3.9l0.2,0.3
			L47.3,13.7z M48.2,20.3c0.5,0.6,0.3,1.6-0.3,2c-0.6,0.5-1.6,0.3-2-0.3c-0.5-0.6-0.3-1.6,0.3-2C46.8,19.5,47.7,19.7,48.2,20.3z
			 M50.9,15c0.5,0.6,0.3,1.6-0.3,2c-0.6,0.5-1.6,0.3-2-0.3c-0.5-0.6-0.3-1.6,0.3-2C49.5,14.2,50.4,14.3,50.9,15z"/>
		<path class="st0" d="M15.9,9.1C16,9.1,16,9.1,15.9,9.1l6.8,11.2c1.4-0.4,2.9-0.2,4.2,0.4c-0.1-0.2-0.1-0.4,0.1-0.5l12.2-9
			c-0.1-0.1-0.3-0.3-0.4-0.4l4.1-3l1,0L44.1,8l5.2-3.9l0.3-0.7l1.6-1.1l-1.1-1.5L27.6,5c-4.2-0.8-8.6-0.3-12.7,1.4l0.7,2.3L15.9,9.1
			z M42.8,4.1c0.5,0.6,0.3,1.6-0.3,2c-0.6,0.5-1.6,0.3-2-0.3c-0.5-0.6-0.3-1.6,0.3-2C41.5,3.3,42.4,3.4,42.8,4.1z M36.9,5.1
			c0.5,0.6,0.3,1.6-0.3,2c-0.6,0.5-1.6,0.3-2-0.3c-0.5-0.6-0.3-1.6,0.3-2C35.6,4.3,36.5,4.4,36.9,5.1z"/>
		<path class="st0" d="M46.3,13.1c-0.4-0.7-0.9-1.4-1.4-2.1c-0.5-0.7-1-1.3-1.6-1.9L27.8,20.6l3,4L46.3,13.1z"/>
		<path class="st0" d="M38.4,41.9l-0.9-2.3l-8-9l0,0L29,30.1c-0.3,0.4-0.7,0.7-1.1,1c-0.4,0.3-0.8,0.5-1.3,0.7L33,42.8l0,0l0,0
			l2.1,1.5L38.4,41.9z"/>
		<path class="st0" d="M13.5,8l1.9,1.6l6.2,10.3l0,0l0.4,0.6c-0.5,0.2-0.9,0.4-1.3,0.7c-0.4,0.3-0.8,0.7-1.1,1L11,13l0,0l0,0
			l-0.8-2.5L13.5,8z"/>
		<g>
			<path class="st0" d="M21,46.6l1.1-14.7c-1-0.4-2-1.1-2.7-2.1c-0.7-1-1.1-2.2-1.2-3.4L3.7,23.1L1,24.5c-0.2,2.1-0.4,9.5,4.2,15.7
				c4.5,6.1,11.4,8.1,13.5,8.6L21,46.6z M9.5,30.3c-0.6-0.8-0.4-2,0.4-2.6c0.8-0.6,2-0.4,2.6,0.4c0.6,0.8,0.4,2-0.4,2.6
				C11.2,31.3,10.1,31.1,9.5,30.3z M13.8,29.4c-0.6-0.8-0.4-2,0.4-2.6c0.8-0.6,2-0.4,2.6,0.4c0.6,0.8,0.4,2-0.4,2.6
				C15.6,30.4,14.4,30.2,13.8,29.4z M11.8,35.5c-0.6-0.8-0.4-2,0.4-2.6c0.8-0.6,2-0.4,2.6,0.4s0.4,2-0.4,2.6
				C13.5,36.4,12.4,36.3,11.8,35.5z M15.3,32.8c-0.6-0.8-0.4-2,0.4-2.6c0.8-0.6,2-0.4,2.6,0.4c0.6,0.8,0.4,2-0.4,2.6
				C17.1,33.8,15.9,33.7,15.3,32.8z M18.6,32.8c0.8-0.6,2-0.4,2.6,0.4c0.6,0.8,0.4,2-0.4,2.6c-0.8,0.6-2,0.4-2.6-0.4
				C17.6,34.5,17.8,33.4,18.6,32.8z M15.9,39c-0.6-0.8-0.4-2,0.4-2.6c0.8-0.6,2-0.4,2.6,0.4c0.6,0.8,0.4,2-0.4,2.6
				C17.6,40,16.5,39.8,15.9,39z"/>
			<path class="st0" d="M21.7,46.8c0,0.1,0,0.2-0.1,0.2L20,48.6c4.6,0.7,9.4,0,13.6-2.2l-0.8-2.8l-0.4-0.3c0,0-0.1-0.1-0.1-0.1
				c0,0,0,0,0,0l-6.5-11.1c-1,0.3-2.1,0.3-3.1,0L21.7,46.8z"/>
			<path class="st0" d="M3.5,22.4c0.1,0,0.2-0.1,0.3,0l14.5,3.3c0.1-1,0.4-1.9,0.9-2.7l-8.8-9.5c0,0,0,0,0,0c0,0,0-0.1-0.1-0.1
				l-0.1-0.4l-2.4-1.6c-3.3,3.4-5.4,7.6-6.1,12L3.5,22.4z"/>
		</g>
		<path class="st0" d="M52.8,31.1l-2.1-2.8l-4,1.7L45.2,31l-13-3.8l-1.2,3.1l15.1,6.9l3.8-2.8L52.8,31.1z M48.9,30.4l-0.6-0.8
			l2.3-0.9l0.4,0.6L48.9,30.4z M49.1,30.7l2.1-1.2l0.5,0.7L50,31.9L49.1,30.7z M50.2,32.1l1.7-1.7l0.4,0.6l-1.6,1.9L50.2,32.1z"/>
	</g>
</g>
</svg>
